<?xml version="1.0" encoding="UTF-8"?>
<svg version="1.1" xmlns="http://www.w3.org/2000/svg" width="1614" height="1615">
<path d="M0 0 C1.45157343 2.90314686 0.46760024 4.41309848 -0.46850586 7.4921875 C-0.99268349 9.23474068 -0.99268349 9.23474068 -1.52745056 11.01249695 C-1.92304044 12.30006184 -2.31884482 13.58756085 -2.71484375 14.875 C-3.12141129 16.21494457 -3.52741056 17.55506167 -3.93287659 18.89533997 C-5.02983166 22.51348075 -6.13658259 26.12855538 -7.24569702 29.74298477 C-7.93722734 31.99911044 -8.62606663 34.25603959 -9.31396484 36.51327515 C-17.06540163 61.94640558 -25.04447406 87.30209187 -33.24951172 112.59277344 C-34.89038446 117.65364028 -36.51164936 122.72060985 -38.12890625 127.7890625 C-63.24858094 206.36242571 -92.2911106 284.13372033 -164 432 C-164.61053223 433.07628662 -164.61053223 433.07628662 -165.23339844 434.17431641 C-183.12021589 465.50179955 -203.02020911 495.95879046 -227 523 C-227.64638428 523.73178467 -228.29276855 524.46356934 -228.95874023 525.2175293 C-241.84210409 539.68139596 -255.33524837 553.55723433 -271 565 C-271.94101563 565.74765625 -272.88203125 566.4953125 -273.8515625 567.265625 C-310.52941433 596.16332644 -356.11268845 607.62982852 -402 609 C-402.70189453 609.02336426 -403.40378906 609.04672852 -404.12695312 609.07080078 C-434.51710244 609.96154654 -465.20320927 606.27857982 -495.46728516 603.8527832 C-531.77897669 600.74617742 -531.77897669 600.74617742 -568.1875 599.6875 C-569.03899628 599.68899048 -569.89049255 599.69048096 -570.76779175 599.6920166 C-666.48079517 599.9878598 -753.98482825 636.74497272 -827.24267578 697.546875 C-829.76933367 699.63615921 -832.32467907 701.68971268 -834.875 703.75 C-839.17101484 707.26667782 -843.32063937 710.91834282 -847.41796875 714.6640625 C-849.55300428 716.5956075 -851.70811394 718.49580192 -853.87890625 720.38671875 C-865.9166477 730.90380011 -877.25302632 742.1501709 -888.5625 753.4375 C-889.17468384 754.04709564 -889.78686768 754.65669128 -890.41760254 755.28475952 C-899.19748914 764.03106923 -899.19748914 764.03106923 -907.48510742 773.23999023 C-910.17378411 776.36370825 -913.04033944 779.32183959 -915.875 782.3125 C-920.79167008 787.53601502 -925.44695705 792.8522919 -929.92578125 798.45703125 C-932.04087596 801.05011347 -934.24518096 803.527849 -936.5 806 C-940.290415 810.1688041 -943.88779421 814.45484998 -947.4296875 818.8359375 C-949.35180461 821.2128481 -951.29965269 823.56675943 -953.2578125 825.9140625 C-959.51863735 833.43123724 -965.61795086 841.02024823 -971.44042969 848.88256836 C-977.01600376 856.40698621 -982.7906454 863.77488958 -988.56469727 871.14746094 C-989.03834717 871.75879883 -989.51199707 872.37013672 -990 873 C-990.50002533 873.58436325 -991.00005066 874.1687265 -991.51522827 874.77079773 C-993.27196814 877.40832674 -993.68349942 879.39811985 -994.19165039 882.51977539 C-994.37973267 883.63796661 -994.56781494 884.75615784 -994.76159668 885.90823364 C-995.05169617 887.73449783 -995.05169617 887.73449783 -995.34765625 889.59765625 C-995.67420889 891.55708018 -996.00077511 893.51650191 -996.32790184 895.47583008 C-996.67493199 897.56560818 -997.01675013 899.65618154 -997.35720825 901.74703979 C-998.54214986 909.01594727 -999.77098367 916.27750009 -1001 923.5390625 C-1001.12385134 924.27264669 -1001.24770267 925.00623089 -1001.37530708 925.76204491 C-1003.87286067 940.53337078 -1006.64533372 955.2429221 -1009.5625 969.9375 C-1009.77391632 971.00582062 -1009.98533264 972.07414124 -1010.20315552 973.17483521 C-1012.04620277 982.47129079 -1013.91873608 991.75361493 -1016 1001 C-975.45151895 1023.26480232 -926.36928739 1035.45726777 -881 1043 C-879.93040039 1043.17869629 -878.86080078 1043.35739258 -877.75878906 1043.54150391 C-829.05061355 1051.48726729 -779.02359714 1052.87489035 -730 1047 C-729.2692627 1046.91278687 -728.53852539 1046.82557373 -727.78564453 1046.73571777 C-707.28396331 1044.25919119 -687.09827775 1040.79337531 -667 1036 C-665.93539551 1035.75056641 -664.87079102 1035.50113281 -663.77392578 1035.24414062 C-622.22647715 1025.40279033 -583.11458971 1010.0767156 -545 991 C-543.98212402 990.49500977 -542.96424805 989.99001953 -541.91552734 989.46972656 C-520.29547555 978.70106327 -499.60147163 966.11519017 -480 952 C-478.89398437 951.20843506 -478.89398437 951.20843506 -477.765625 950.40087891 C-466.76437954 942.50284072 -456.18012925 934.2098096 -445.80859375 925.50439453 C-443.40415154 923.50437119 -440.94965253 921.56922724 -438.5 919.625 C-426.24209319 909.56911238 -415.09327612 898.18371 -403.875 887 C-403.38390747 886.5115863 -402.89281494 886.02317261 -402.38684082 885.5199585 C-396.6994651 879.85618283 -391.19603766 874.11746172 -386 868 C-385.02705486 866.88193001 -384.05312884 865.76471267 -383.078125 864.6484375 C-321.18020094 793.19703196 -277.02815587 704.50763113 -254.53710938 576.16381836 C-253.87952274 572.29033417 -252.91227733 571.40576423 -249.875 569 C-245.12401793 565.01464381 -240.68726628 560.83388608 -236.3125 556.4375 C-235.65781738 555.77959473 -235.00313477 555.12168945 -234.32861328 554.44384766 C-230.03621015 550.10337485 -225.91052399 545.68908985 -222 541 C-221.16210938 540.02804687 -220.32421875 539.05609375 -219.4609375 538.0546875 C-213.79202601 531.46737668 -208.37990813 524.75265351 -203.26025391 517.72412109 C-201.86470179 515.81490199 -200.45359501 513.91763679 -199.04296875 512.01953125 C-190.44662983 500.37049643 -182.65134474 488.2850092 -175 476 C-174.27787678 474.85252896 -173.55530804 473.70533801 -172.83203125 472.55859375 C-171.24327572 470.01455238 -169.67836141 467.4583793 -168.13476562 464.88671875 C-167.30458809 463.50642357 -166.46921927 462.12924701 -165.63085938 460.75390625 C-147.41005465 430.76793493 -132.02715992 399.13323676 -118 367 C-117.41506426 365.66600458 -116.8301033 364.33202021 -116.24511719 362.99804688 C-106.77503193 341.35020719 -98.16582991 319.38912234 -89.85552979 297.27301025 C-89.05101304 295.13553376 -88.24195498 292.99984467 -87.43115234 290.86474609 C-74.28377883 256.18584026 -63.16760014 220.65893099 -53 185 C-52.34 185 -51.68 185 -51 185 C-49.13714084 189.26708162 -47.28395202 193.53829675 -45.4375 197.8125 C-45.16366486 198.44582245 -44.88982971 199.0791449 -44.60769653 199.73165894 C-40.81829014 208.51621094 -37.22065028 217.33532313 -34.14428711 226.3996582 C-32.89157395 230.25977112 -32.89157395 230.25977112 -30.51176453 233.46011353 C-28.73160437 235.27338835 -28.19381354 236.69658237 -27.40942383 239.10302734 C-26.99759857 240.34538399 -26.99759857 240.34538399 -26.57745361 241.61283875 C-26.29021423 242.51146133 -26.00297485 243.41008392 -25.70703125 244.3359375 C-25.39989197 245.27391678 -25.09275269 246.21189606 -24.77630615 247.17829895 C-23.777769 250.2405436 -22.79406786 253.30727715 -21.8125 256.375 C-21.30636673 257.94479111 -21.30636673 257.94479111 -20.79000854 259.54629517 C5.13983405 340.00442531 18.50040243 423.19779346 18.31805801 507.75674438 C18.31241427 510.41538554 18.30959606 513.07402032 18.30697632 515.73266602 C18.27198124 540.15980027 18.06745978 564.47547138 15.25646973 588.76947021 C14.98310171 591.14696521 14.72273082 593.52566912 14.46386719 595.90478516 C4.98351732 682.22000332 -17.45225446 766.47432143 -90.48339844 916.47509766 C-91.89069341 918.81802176 -93.26885314 921.17462028 -94.6328125 923.54296875 C-104.25160484 940.23081007 -114.97303831 956.21630974 -126 972 C-126.73283203 973.05380859 -126.73283203 973.05380859 -127.48046875 974.12890625 C-133.6883942 983.04980684 -140.01729352 991.8346582 -146.73046875 1000.38330078 C-148.07443643 1002.09479193 -149.41241053 1003.81086427 -150.75 1005.52734375 C-162.33385125 1020.36474626 -174.3305796 1034.8411306 -186.9921875 1048.7734375 C-188.84035297 1050.82295952 -190.64227688 1052.90418138 -192.4375 1055 C-195.88866744 1058.97164513 -199.60654906 1062.64321882 -203.375 1066.3125 C-205.44384048 1068.43059859 -207.38458078 1070.56988619 -209.31640625 1072.80859375 C-213.01646215 1077.0751175 -216.93383219 1081.08199709 -220.9375 1085.0625 C-221.60201172 1085.73087891 -222.26652344 1086.39925781 -222.95117188 1087.08789062 C-226.90371069 1091.03276205 -230.97533061 1094.76931823 -235.20288086 1098.41674805 C-237.52364946 1100.46133226 -239.66966355 1102.64584965 -241.8125 1104.875 C-246.04759423 1109.16189967 -250.51037324 1112.96046695 -255.21484375 1116.71875 C-258.06967233 1119.05706682 -260.78688343 1121.49914718 -263.5 1124 C-273.1936327 1132.89839834 -283.61960997 1140.92606908 -294 1149 C-294.64710937 1149.50547363 -295.29421875 1150.01094727 -295.9609375 1150.53173828 C-313.04990825 1163.85963935 -330.85962552 1176.15162449 -349 1188 C-349.82661133 1188.54092285 -350.65322266 1189.0818457 -351.50488281 1189.63916016 C-384.2226913 1210.96910412 -418.61314376 1229.51588055 -454 1246 C-455.01497559 1246.47356934 -456.02995117 1246.94713867 -457.07568359 1247.43505859 C-489.02664626 1262.21231241 -522.26469006 1273.94665738 -555.86547852 1284.33843994 C-557.80577525 1284.93980321 -559.74383853 1285.54836089 -561.68164062 1286.15771484 C-599.50204571 1297.97243717 -638.81897424 1305.4331919 -678 1311 C-678.73915649 1311.10572327 -679.47831299 1311.21144653 -680.23986816 1311.32037354 C-689.7846472 1312.67755468 -699.34025638 1313.81789159 -708.9319458 1314.78710938 C-710.99212491 1314.99918932 -713.05044794 1315.22482288 -715.10888672 1315.453125 C-765.49285176 1320.93891915 -819.41118118 1321.08328526 -869.76947021 1315.25646973 C-872.14696521 1314.98310171 -874.52566912 1314.72273082 -876.90478516 1314.46386719 C-955.92371676 1305.78542984 -1032.81753803 1286.2834472 -1123 1248 C-1124.06460449 1247.52820312 -1125.12920898 1247.05640625 -1126.22607422 1246.5703125 C-1138.94280157 1240.90887631 -1151.37490192 1234.8774345 -1163.62402344 1228.26806641 C-1166.09409046 1226.94978361 -1168.57908326 1225.66452713 -1171.0703125 1224.38671875 C-1205.72104132 1206.58275312 -1238.69913715 1185.15406293 -1270 1162 C-1270.6796582 1161.50048828 -1271.35931641 1161.00097656 -1272.05957031 1160.48632812 C-1281.68897932 1153.40357774 -1291.02244188 1146.0094409 -1300.2578125 1138.421875 C-1302.60840809 1136.5034517 -1304.99135852 1134.62711766 -1307.375 1132.75 C-1311.55030053 1129.42509457 -1315.49056999 1125.88469467 -1319.4296875 1122.28515625 C-1322.07579333 1119.93261535 -1324.7990578 1117.71306305 -1327.5625 1115.5 C-1331.87197787 1112.01599958 -1335.8087772 1108.34031724 -1339.63671875 1104.3359375 C-1341.59283171 1102.40245725 -1343.57871441 1100.61971315 -1345.66308594 1098.83032227 C-1349.85980993 1095.17037234 -1353.82360534 1091.32128735 -1357.75390625 1087.37890625 C-1358.45845444 1086.67531479 -1359.16300262 1085.97172333 -1359.88890076 1085.24681091 C-1361.36653367 1083.76985352 -1362.84292457 1082.29165258 -1364.31811523 1080.81225586 C-1366.55666481 1078.56834915 -1368.80050473 1076.32983296 -1371.04492188 1074.09179688 C-1372.48990404 1072.64615382 -1373.93457592 1071.20020055 -1375.37890625 1069.75390625 C-1376.03951553 1069.0953212 -1376.70012482 1068.43673615 -1377.38075256 1067.75819397 C-1381.23194021 1063.88786884 -1384.90370993 1059.91057632 -1388.46583557 1055.77227783 C-1390.70645181 1053.18390176 -1393.04159836 1050.69257834 -1395.375 1048.1875 C-1399.6655487 1043.54308403 -1403.72872414 1038.76241201 -1407.6953125 1033.8359375 C-1409.75828773 1031.29742899 -1411.85898776 1028.8010438 -1413.98413086 1026.31494141 C-1424.53707173 1013.96705588 -1434.34030221 1001.05298409 -1444 988 C-1444.50225098 987.32549805 -1445.00450195 986.65099609 -1445.52197266 985.95605469 C-1498.88951821 914.12889501 -1538.80577319 831.91299134 -1589 643.5 C-1589.15415375 642.60704224 -1589.3083075 641.71408447 -1589.46713257 640.79406738 C-1590.95593656 632.10050652 -1592.27166709 623.73522261 -1592.01171875 614.88769531 C-1591.98823634 609.10123878 -1592.82018077 603.36365418 -1593.5 597.625 C-1593.78418019 595.1800263 -1594.06553305 592.73472194 -1594.34375 590.2890625 C-1594.46943359 589.22381348 -1594.59511719 588.15856445 -1594.72460938 587.06103516 C-1594.99537117 584.05145064 -1595 581.02173971 -1595 578 C-1506.89 578 -1418.78 578 -1328 578 C-1326.02 589.88 -1324.04 601.76 -1322 614 C-1305.93737288 691.86882279 -1274.80774805 766.16013361 -1227 830 C-1226.45456543 830.73089844 -1225.90913086 831.46179687 -1225.34716797 832.21484375 C-1218.99951258 840.69577341 -1212.47413232 848.97199046 -1205.5625 857 C-1203.07033681 859.91765446 -1200.65483067 862.88521052 -1198.25 865.875 C-1195.26639008 869.54345989 -1192.187378 872.94718474 -1188.77856445 876.22045898 C-1187.01785232 877.98213787 -1185.40189506 879.809155 -1183.78515625 881.703125 C-1180.04803704 886.00209463 -1176.10078603 890.04757918 -1172.0625 894.0625 C-1171.39798828 894.73087891 -1170.73347656 895.39925781 -1170.04882812 896.08789062 C-1166.11369454 900.01539059 -1162.06883112 903.75389006 -1157.85961914 907.38549805 C-1155.24451436 909.65590476 -1152.72165311 912.01451612 -1150.1875 914.375 C-1144.64362133 919.48918861 -1138.90475255 924.30484635 -1133 929 C-1132.20770996 929.63373535 -1132.20770996 929.63373535 -1131.39941406 930.28027344 C-1118.58741634 940.51940063 -1105.44197427 950.12268818 -1091.8125 959.25 C-1090.33450928 960.24229614 -1090.33450928 960.24229614 -1088.82666016 961.25463867 C-1082.03107848 965.77050356 -1075.08911245 969.96161045 -1068 974 C-1059.82273422 966.03210945 -1051.96155193 958.07767135 -1045 949 C-1044.33218506 948.13882568 -1044.33218506 948.13882568 -1043.65087891 947.26025391 C-1025.34205856 923.60181544 -1009.52290394 898.79609376 -998.90267944 870.7482605 C-997.13689945 866.08634321 -995.32657915 861.44207602 -993.51976013 856.79594421 C-992.61308099 854.4629009 -991.70856609 852.12901529 -990.80628967 849.79426575 C-987.06570239 840.11913837 -983.19293918 830.50581538 -979.1875 820.9375 C-978.8908847 820.22839478 -978.59426941 819.51928955 -978.28866577 818.78869629 C-966.87203376 791.56061846 -954.67913455 764.66167676 -942 738 C-941.67946655 737.32499451 -941.35893311 736.64998901 -941.02868652 735.95452881 C-932.88845673 718.82063395 -924.54500208 701.89061644 -915.28466797 685.32714844 C-913.7040895 682.46396448 -912.19103702 679.5691725 -910.68505859 676.66625977 C-889.716582 636.28914488 -864.53890354 597.44311425 -836 562 C-835.26523437 561.0821875 -834.53046875 560.164375 -833.7734375 559.21875 C-825.53960738 549.03874185 -817.15116852 538.84038255 -807.73046875 529.73046875 C-806.01878062 528.01878062 -804.48547044 526.23490402 -802.9375 524.375 C-797.18593394 517.71048694 -790.51422999 511.90091876 -784 506 C-783.39091797 505.44618652 -782.78183594 504.89237305 -782.15429688 504.32177734 C-767.34273337 490.93254298 -751.36576883 479.28777009 -734.1171875 469.23632812 C-732.10978668 468.06410975 -730.11703498 466.86995342 -728.125 465.671875 C-660.14674427 425.42756113 -580.84819721 428.8004207 -504.88882446 432.35479736 C-412.49142857 436.6730412 -328.22148256 429.48730545 -224 352 C-222.99747165 351.10928966 -221.9948704 350.21866136 -220.9921875 349.328125 C-213.45531618 342.56027172 -206.29654837 335.39978728 -199.125 328.25 C-198.62645508 327.75413391 -198.12791016 327.25826782 -197.61425781 326.74737549 C-191.85580321 321.01240832 -186.25701011 315.20160303 -181 309 C-179.99164672 307.83527797 -178.98254977 306.67119929 -177.97265625 305.5078125 C-177.00218807 304.38056642 -176.03213173 303.25296565 -175.0625 302.125 C-174.58876953 301.57714844 -174.11503906 301.02929688 -173.62695312 300.46484375 C-145.93799165 268.24093919 -121.8594545 232.38523191 -100 196 C-99.21882813 194.70352539 -99.21882813 194.70352539 -98.421875 193.38085938 C-90.01621019 179.39522047 -81.94185835 165.22564275 -74.06814575 150.93417358 C-73.30494595 149.55218907 -72.53908341 148.17167369 -71.77145386 146.79214478 C-62.97970247 130.98295285 -54.77126448 114.9039831 -46.70075607 98.7191658 C-45.67254452 96.65751297 -44.64301081 94.59652425 -43.61331177 92.53561401 C-34.23688896 73.75880139 -25.06732971 54.92527711 -16.63134766 35.70361328 C-13.82788647 29.32075027 -10.94902025 22.97141127 -8.0798645 16.6178894 C-7.14964838 14.5546701 -6.2236359 12.48961121 -5.29858398 10.42407227 C-4.74339875 9.18893251 -4.18814554 7.95382331 -3.6328125 6.71875 C-3.14699707 5.63529297 -2.66118164 4.55183594 -2.16064453 3.43554688 C-1 1 -1 1 0 0 Z " fill="#FE9900" transform="translate(1596,297)"/>
<path d="M0 0 C0.8116864 0.08721313 1.6233728 0.17442627 2.45965576 0.26428223 C52.19573638 5.61240282 100.95672977 15.03407628 149 29 C150.2055957 29.34998047 151.41119141 29.69996094 152.65332031 30.06054688 C209.99242334 46.89088212 265.70439364 70.72931837 317.46826172 100.55273438 C319.70850285 101.83336595 321.95924326 103.08906619 324.22265625 104.328125 C348.15727909 117.44504271 370.86818529 133.05941607 393 149 C393.76989258 149.55445801 394.53978516 150.10891602 395.33300781 150.68017578 C405.91572699 158.32900769 416.21524432 166.24392322 426.27197266 174.57177734 C428.73154178 176.60462269 431.21088815 178.61297623 433.6875 180.625 C443.1141107 188.35820758 452.35781979 196.23053406 461.30078125 204.51953125 C463.49988747 206.54041757 465.72673527 208.50170963 468 210.4375 C472.0626077 213.94996291 475.79558212 217.76845188 479.56713867 221.58642578 C482.98552656 225.03139691 486.51406162 228.27416634 490.203125 231.4296875 C494.57301407 235.24859055 498.53285372 239.41468728 502.3125 243.8125 C505.07618029 247.02333755 507.98619596 250.02267165 511 253 C514.57083512 256.53313399 517.96551225 260.13373095 521.23046875 263.94921875 C523.23786023 266.27566583 525.30466638 268.54192686 527.375 270.8125 C531.20036325 275.05576008 534.8509409 279.40859497 538.44140625 283.8515625 C540.32262409 286.17811454 542.23129752 288.47966809 544.15234375 290.7734375 C552.42691128 300.67759306 560.29830011 310.83469253 567.95410156 321.22412109 C569.47169079 323.28318905 570.99498459 325.33745736 572.52246094 327.38916016 C579.2505173 336.45644617 585.63735059 345.71490712 591.875 355.125 C592.35012024 355.83967438 592.82524048 356.55434875 593.3147583 357.29067993 C600.17522408 367.61499847 606.98950193 377.96371251 613.3125 388.62890625 C615.01318344 391.4837129 616.81044608 394.11223313 618.875 396.71484375 C621.38950113 400.02035043 623.08319515 402.87665879 624 407 C623.04704054 412.91271335 619.67013219 418.05679975 616.66552734 423.13134766 C614.84551648 426.2660776 613.16117862 429.45240502 611.48828125 432.66796875 C603.80901651 447.39596663 595.66341431 461.82626005 587 476 C586.12674072 477.42940918 586.12674072 477.42940918 585.23583984 478.88769531 C572.50201086 499.64900122 559.38257812 520.0950745 544.33984375 539.26757812 C542.49462088 541.65345667 540.74606654 544.1034563 539 546.5625 C534.13218148 553.32393079 528.80596511 559.71542845 523.51611328 566.14746094 C522.20634047 567.74787254 520.91221725 569.36106808 519.62109375 570.9765625 C514.91572791 576.85177068 509.941172 582.40635374 504.77929688 587.87939453 C502.04607499 590.77854987 499.37796969 593.70859137 496.78515625 596.734375 C492.57610651 601.57303811 488.05442412 606.09592735 483.51196289 610.6184082 C482.06475615 612.06025221 480.62297974 613.50737116 479.18164062 614.95507812 C473.95875868 620.18215637 468.64308089 625.22828284 463 630 C462.44739502 630.47429443 461.89479004 630.94858887 461.32543945 631.43725586 C455.71058252 636.25305237 450.04310362 641.01013322 444.3125 645.6875 C443.52488281 646.33074219 442.73726562 646.97398437 441.92578125 647.63671875 C440 649 440 649 438 649 C437.69932617 648.09161377 437.39865234 647.18322754 437.08886719 646.24731445 C424.19034246 607.40995939 408.95162853 569.28373487 388 534 C387.47196777 533.10667969 386.94393555 532.21335937 386.39990234 531.29296875 C366.75606502 498.19695187 343.88721614 467.16948472 317.71484375 438.93359375 C315.88382881 436.9550438 314.06252905 434.97132248 312.25390625 432.97265625 C304.31248159 424.20781198 296.21964145 415.60448123 287.203125 407.92578125 C284.92549953 405.93487814 282.72405957 403.87209618 280.52246094 401.79785156 C274.37715746 396.02410763 268.00110836 390.71485885 261.3203125 385.57421875 C258.40175696 383.32834453 255.57084303 380.99295539 252.75 378.625 C240.51135954 368.56411762 227.32442969 359.55735022 214 351 C213.25508301 350.52127441 212.51016602 350.04254883 211.74267578 349.54931641 C132.53795823 298.95841323 41.72570038 269.6472649 -58.3125 264.375 C-59.20557861 264.33479736 -60.09865723 264.29459473 -61.01879883 264.25317383 C-76.7296532 263.64809648 -92.42789085 263.96089134 -108.125 264.75 C-109.40810562 264.81385391 -109.40810562 264.81385391 -110.71713257 264.8789978 C-137.15005525 266.23322536 -163.0552682 269.71823253 -189 275 C-189.97018066 275.19174805 -190.94036133 275.38349609 -191.93994141 275.58105469 C-239.51791797 285.01706915 -284.76649098 302.30054941 -328 324 C-328.92022949 324.46148437 -329.84045898 324.92296875 -330.78857422 325.3984375 C-367.62654963 344.01130929 -401.49727495 368.11157714 -432.875 394.8125 C-433.64928345 395.46774658 -433.64928345 395.46774658 -434.43920898 396.13623047 C-445.11790786 405.28017906 -455.21351684 415.04682514 -465.13183594 425.00146484 C-466.8914348 426.76648544 -468.65640397 428.52601133 -470.421875 430.28515625 C-476.16168512 436.02129377 -481.76342712 441.79428091 -487 448 C-487.94869808 449.08362975 -488.8991728 450.16570709 -489.8515625 451.24609375 C-497.65257855 460.19035016 -504.89200701 469.49941785 -512 479 C-512.46760742 479.61955566 -512.93521484 480.23911133 -513.41699219 480.87744141 C-526.44184919 498.14545736 -538.1622153 516.29003206 -549 535 C-549.42200684 535.72687012 -549.84401367 536.45374023 -550.27880859 537.20263672 C-583.12630347 594.14263081 -603.62294862 655.99652346 -614.42504883 720.65698242 C-615.24837119 725.44413873 -616.13107468 730.22091076 -617 735 C-705.44 735 -793.88 735 -885 735 C-885 726.35394826 -884.40839506 718.22773818 -883.375 709.6875 C-883.2876358 708.9557959 -883.20027161 708.2240918 -883.11026001 707.47021484 C-874.80230781 638.38489011 -857.96032125 570.6043704 -832 506 C-831.5162793 504.79214844 -831.03255859 503.58429688 -830.53417969 502.33984375 C-819.1318035 473.9952894 -806.4465812 446.02868147 -791.37207031 419.43847656 C-789.97088541 416.94825685 -788.60225258 414.44257883 -787.2421875 411.9296875 C-778.32385416 395.46397486 -768.83863514 379.4054058 -758.29931641 363.92333984 C-756.90635962 361.8613869 -755.53531697 359.78604836 -754.16796875 357.70703125 C-747.06556135 346.92254618 -739.6564049 336.39796614 -732 326 C-731.37182373 325.14583496 -731.37182373 325.14583496 -730.73095703 324.27441406 C-718.59030438 307.81199449 -705.95591634 291.41688444 -692.10546875 276.35546875 C-689.82751678 273.8070364 -687.69628562 271.17002493 -685.5625 268.5 C-681.82988406 263.88145776 -677.83389154 259.6955422 -673.5546875 255.58203125 C-671.53950193 253.54527642 -669.67893246 251.49393426 -667.81665039 249.32324219 C-664.16175008 245.1305995 -660.31675746 241.17187864 -656.37890625 237.24609375 C-655.32351906 236.18927147 -655.32351906 236.18927147 -654.24681091 235.11109924 C-652.76985352 233.63346633 -651.29165258 232.15707543 -649.81225586 230.68188477 C-647.56834915 228.44333519 -645.32983296 226.19949527 -643.09179688 223.95507812 C-641.64615382 222.51009596 -640.20020055 221.06542408 -638.75390625 219.62109375 C-638.0953212 218.96048447 -637.43673615 218.29987518 -636.75819397 217.61924744 C-632.87377458 213.75403521 -628.88064592 210.06914357 -624.72955322 206.49143982 C-622.5102696 204.57769243 -620.35027953 202.60218199 -618.1875 200.625 C-613.79064016 196.65299011 -609.24713717 192.90087978 -604.640625 189.17578125 C-602.26163105 187.2155747 -599.9677026 185.19829532 -597.6875 183.125 C-591.71349603 177.76425662 -585.34963468 172.90177842 -579 168 C-578.33935547 167.48775879 -577.67871094 166.97551758 -576.99804688 166.44775391 C-572.02606651 162.59530016 -567.02638288 158.78120038 -562 155 C-561.34708984 154.50870605 -560.69417969 154.01741211 -560.02148438 153.51123047 C-522.82348309 125.70619182 -482.67426787 101.32662151 -440.94921875 80.953125 C-438.13250016 79.57495752 -435.35328196 78.13925255 -432.58203125 76.671875 C-362.0986824 39.76111866 -281.38644918 17.1888568 -163.08551025 0.22003174 C-161.03804611 0.00401405 -158.99244944 -0.22520132 -156.94677734 -0.45751953 C-105.70213019 -6.17578826 -51.22073511 -5.6551546 0 0 Z " fill="#878787" transform="translate(885,3)"/>
<path d="M0 0 C451.36040225 0 451.36040225 0 536.72265625 77.9453125 C538.6737616 79.70565798 540.66013544 81.39184323 542.6875 83.0625 C546.54991667 86.36034068 549.73232752 90.12483459 553 94 C553.81339844 94.92554688 554.62679687 95.85109375 555.46484375 96.8046875 C588.05485416 134.08018168 618 193.38486045 618 244 C613.83317839 243.87991587 609.66658135 243.75313865 605.5 243.625 C604.82808624 243.60487854 604.15617249 243.58475708 603.46389771 243.56402588 C594.26083776 243.28588611 585.06663455 242.91870531 575.87109375 242.453125 C529.67790229 240.15483985 484.75115972 240.30938648 439.46069336 250.49682617 C437 251 437 251 435 251 C434.731875 249.79988281 434.46375 248.59976563 434.1875 247.36328125 C427.89214294 220.19544055 417.07316807 189.55766973 394 172 C393.29101562 171.38382813 392.58203125 170.76765625 391.8515625 170.1328125 C368.96927166 150.59544125 338.17011796 143.52121362 309 140 C307.80093018 139.85135498 307.80093018 139.85135498 306.57763672 139.69970703 C264.56869374 134.68434501 221.25920026 136.54060047 179 136 C179.00328196 136.58616752 179.00656392 137.17233503 179.00994533 137.7762652 C179.0949027 155.65319809 178.81130046 173.51527221 178.42285812 191.38696253 C178.33705876 195.3619484 178.25437503 199.3369994 178.17126465 203.31204224 C178.00868496 211.06516685 177.84332192 218.81822959 177.67695684 226.5712738 C177.48240541 235.6427248 177.29065936 244.71423451 177.09898829 253.78574676 C176.75624202 270.00280043 176.41094662 286.2197988 176.06420898 302.43676758 C175.72957425 318.08776824 175.39682385 333.73880747 175.06616211 349.38989258 C175.04581854 350.35279632 175.02547498 351.31570006 175.00451494 352.3077827 C174.98420286 353.26919811 174.96389078 354.23061352 174.94296318 355.22116274 C174.56413291 373.15115188 174.18344025 391.0811011 173.80194505 409.01103372 C173.66823796 415.29716655 173.53507547 421.58331078 173.40210152 427.86945915 C173.23931454 435.56332537 173.0754399 443.25716764 172.91031284 450.95098399 C172.82647727 454.85804498 172.74302852 458.76511292 172.66083336 462.67220879 C172.64551536 463.39814332 172.63019736 464.12407785 172.61441518 464.8720104 C172.5840376 466.31218613 172.55378118 467.75236442 172.52364915 469.1925453 C172.45007543 472.66886012 172.37144559 476.14492631 172.28181946 479.62086666 C172.24711519 480.9825658 172.21257319 482.34426909 172.17819405 483.70597649 C172.15271272 484.71416019 172.15271272 484.71416019 172.12671662 485.74271124 C172.02405241 490.10177532 171.98109833 494.45818405 171.97163593 498.81841044 C171.96082566 501.87009576 171.92476194 504.9212385 171.88559955 507.97267676 C171.87336282 509.40604643 171.87221712 510.8395676 171.88387204 512.27294212 C171.99042991 526.27574421 167.28695493 536.6039268 160.25 548.4375 C155.73250304 556.23732228 152.03453509 564.33359273 148.375 572.5625 C147.7444057 573.96734284 147.11314006 575.37188453 146.48120117 576.77612305 C145.23992657 579.53599777 144.0021827 582.29741232 142.76708984 585.06005859 C141.12838306 588.72090434 139.46705997 592.3711432 137.80078125 596.01953125 C128.03876207 617.4700228 119.02678038 639.23239842 110 661 C91.81904942 663.00796936 73.57972759 664.33306033 55.34301758 665.71435547 C50.81771166 666.05728721 46.29289249 666.40625013 41.76816463 666.75671577 C38.24141554 667.02898679 34.71438159 667.29741633 31.18725777 667.564785 C29.5188036 667.6918337 27.85044831 667.82018878 26.18220329 667.94995499 C23.84953655 668.13095895 21.51651955 668.30657496 19.18334961 668.48095703 C18.5156102 668.53391937 17.84787079 668.58688171 17.15989685 668.64144897 C11.39585113 669.06289956 5.83312409 669 0 669 C0 448.23 0 227.46 0 0 Z " fill="#0884AA" transform="translate(499,473)"/>
<path d="M0 0 C1.45157343 2.90314686 0.46760024 4.41309848 -0.46850586 7.4921875 C-0.99268349 9.23474068 -0.99268349 9.23474068 -1.52745056 11.01249695 C-1.92304044 12.30006184 -2.31884482 13.58756085 -2.71484375 14.875 C-3.12141129 16.21494457 -3.52741056 17.55506167 -3.93287659 18.89533997 C-5.02983166 22.51348075 -6.13658259 26.12855538 -7.24569702 29.74298477 C-7.93722734 31.99911044 -8.62606663 34.25603959 -9.31396484 36.51327515 C-17.06540163 61.94640558 -25.04447406 87.30209187 -33.24951172 112.59277344 C-34.89038446 117.65364028 -36.51164936 122.72060985 -38.12890625 127.7890625 C-63.24858094 206.36242571 -92.2911106 284.13372033 -164 432 C-164.40702148 432.71752441 -164.81404297 433.43504883 -165.23339844 434.17431641 C-183.12021589 465.50179955 -203.02020911 495.95879046 -227 523 C-227.64638428 523.73178467 -228.29276855 524.46356934 -228.95874023 525.2175293 C-241.84210409 539.68139596 -255.33524837 553.55723433 -271 565 C-272.41152344 566.12148437 -272.41152344 566.12148437 -273.8515625 567.265625 C-310.52941433 596.16332644 -356.11268845 607.62982852 -402 609 C-402.70189453 609.02336426 -403.40378906 609.04672852 -404.12695312 609.07080078 C-434.51710244 609.96154654 -465.20320927 606.27857982 -495.46728516 603.8527832 C-531.77897669 600.74617742 -531.77897669 600.74617742 -568.1875 599.6875 C-569.03899628 599.68899048 -569.89049255 599.69048096 -570.76779175 599.6920166 C-666.48079517 599.9878598 -753.98482825 636.74497272 -827.24267578 697.546875 C-829.76933367 699.63615921 -832.32467907 701.68971268 -834.875 703.75 C-839.17101484 707.26667782 -843.32063937 710.91834282 -847.41796875 714.6640625 C-849.55300428 716.5956075 -851.70811394 718.49580192 -853.87890625 720.38671875 C-865.9166477 730.90380011 -877.25302632 742.1501709 -888.5625 753.4375 C-889.17468384 754.04709564 -889.78686768 754.65669128 -890.41760254 755.28475952 C-899.19748914 764.03106923 -899.19748914 764.03106923 -907.48510742 773.23999023 C-910.17378411 776.36370825 -913.04033944 779.32183959 -915.875 782.3125 C-920.79167008 787.53601502 -925.44695705 792.8522919 -929.92578125 798.45703125 C-932.04087596 801.05011347 -934.24518096 803.527849 -936.5 806 C-940.290415 810.1688041 -943.88779421 814.45484998 -947.4296875 818.8359375 C-949.35180461 821.2128481 -951.29965269 823.56675943 -953.2578125 825.9140625 C-959.51863735 833.43123724 -965.61795086 841.02024823 -971.44042969 848.88256836 C-977.01600376 856.40698621 -982.7906454 863.77488958 -988.56469727 871.14746094 C-989.03834717 871.75879883 -989.51199707 872.37013672 -990 873 C-990.75003799 873.87654488 -990.75003799 873.87654488 -991.51522827 874.77079773 C-993.27196814 877.40832674 -993.68349942 879.39811985 -994.19165039 882.51977539 C-994.3797377 883.63798172 -994.56782501 884.75618805 -994.76161194 885.90827942 C-994.95500656 887.12577377 -995.14840118 888.34326813 -995.34765625 889.59765625 C-995.67414129 891.55688307 -996.00064005 893.51610766 -996.32770443 895.47523785 C-996.67469811 897.56494033 -997.01648422 899.65543777 -997.35693359 901.74621582 C-998.54269761 909.01940037 -999.77360865 916.28502125 -1001.00390625 923.55078125 C-1001.12787907 924.28472988 -1001.25185188 925.01867851 -1001.37958145 925.77486801 C-1003.86627866 940.47702694 -1006.60967944 955.12145837 -1009.5 969.75 C-1009.7071463 970.80551056 -1009.9142926 971.86102112 -1010.12771606 972.94851685 C-1012.17516375 983.36129464 -1014.22558398 993.7514029 -1017 1004 C-1017.22429687 1004.84143555 -1017.44859375 1005.68287109 -1017.6796875 1006.54980469 C-1022.6425855 1024.89683996 -1028.24330227 1043.07160313 -1037 1060 C-1037.33708984 1060.65355469 -1037.67417969 1061.30710937 -1038.02148438 1061.98046875 C-1044.07628454 1073.55285945 -1044.07628454 1073.55285945 -1046.72387695 1074.83447266 C-1050.12407247 1075.08174634 -1052.2688869 1073.77146195 -1055.3125 1072.28125 C-1055.92206543 1071.98569214 -1056.53163086 1071.69013428 -1057.15966797 1071.38562012 C-1058.45341331 1070.75549256 -1059.74437959 1070.11963185 -1061.03271484 1069.47851562 C-1062.95992336 1068.51993387 -1064.89479644 1067.57874844 -1066.83203125 1066.640625 C-1073.78163363 1063.2493119 -1080.52063869 1059.62739307 -1087.16821289 1055.66821289 C-1089.93519659 1054.03817585 -1092.7328369 1052.49032753 -1095.55859375 1050.96484375 C-1101.13142064 1047.94901976 -1106.60564302 1044.78262408 -1112.0625 1041.5625 C-1112.97837891 1041.02818359 -1113.89425781 1040.49386719 -1114.83789062 1039.94335938 C-1129.98805226 1031.01194774 -1129.98805226 1031.01194774 -1135 1026 C-1127.18406073 1020.14380951 -1119.29689068 1014.47574852 -1111.125 1009.125 C-1093.63297891 997.60851407 -1076.53223762 984.73790553 -1062.63671875 968.98046875 C-1060.0260181 966.02941009 -1057.33167224 963.17540152 -1054.625 960.3125 C-1047.84666597 952.98874089 -1041.92291134 945.01857141 -1036 937 C-1035.50918945 936.34467285 -1035.01837891 935.6893457 -1034.51269531 935.01416016 C-1031.43882068 930.89658334 -1028.49194344 926.71068035 -1025.63378906 922.44042969 C-1024.52004213 920.77679933 -1023.39382276 919.1214675 -1022.25683594 917.47363281 C-1008.02339787 896.56090098 -999.73383612 873.15508965 -990.73074341 849.66807556 C-987.03117576 840.02793274 -983.17803379 830.46057301 -979.1875 820.9375 C-978.89061279 820.22794159 -978.59372559 819.51838318 -978.2878418 818.787323 C-966.87171347 791.55960787 -954.6789068 764.66119786 -942 738 C-941.67946655 737.32499451 -941.35893311 736.64998901 -941.02868652 735.95452881 C-932.88845673 718.82063395 -924.54500208 701.89061644 -915.28466797 685.32714844 C-913.7040895 682.46396448 -912.19103702 679.5691725 -910.68505859 676.66625977 C-889.716582 636.28914488 -864.53890354 597.44311425 -836 562 C-835.26523437 561.0821875 -834.53046875 560.164375 -833.7734375 559.21875 C-825.53960738 549.03874185 -817.15116852 538.84038255 -807.73046875 529.73046875 C-806.01878062 528.01878062 -804.48547044 526.23490402 -802.9375 524.375 C-797.18593394 517.71048694 -790.51422999 511.90091876 -784 506 C-783.39091797 505.44618652 -782.78183594 504.89237305 -782.15429688 504.32177734 C-767.34273337 490.93254298 -751.36576883 479.28777009 -734.1171875 469.23632812 C-732.10978668 468.06410975 -730.11703498 466.86995342 -728.125 465.671875 C-660.14674427 425.42756113 -580.84819721 428.8004207 -504.88882446 432.35479736 C-412.49142857 436.6730412 -328.22148256 429.48730545 -224 352 C-222.99747165 351.10928966 -221.9948704 350.21866136 -220.9921875 349.328125 C-213.45531618 342.56027172 -206.29654837 335.39978728 -199.125 328.25 C-198.62645508 327.75413391 -198.12791016 327.25826782 -197.61425781 326.74737549 C-191.85580321 321.01240832 -186.25701011 315.20160303 -181 309 C-179.99164672 307.83527797 -178.98254977 306.67119929 -177.97265625 305.5078125 C-177.00218807 304.38056642 -176.03213173 303.25296565 -175.0625 302.125 C-174.58876953 301.57714844 -174.11503906 301.02929688 -173.62695312 300.46484375 C-145.93799165 268.24093919 -121.8594545 232.38523191 -100 196 C-99.21882813 194.70352539 -99.21882813 194.70352539 -98.421875 193.38085938 C-90.01621019 179.39522047 -81.94185835 165.22564275 -74.06814575 150.93417358 C-73.30494595 149.55218907 -72.53908341 148.17167369 -71.77145386 146.79214478 C-62.97970247 130.98295285 -54.77126448 114.9039831 -46.70075607 98.7191658 C-45.67254452 96.65751297 -44.64301081 94.59652425 -43.61331177 92.53561401 C-34.23688896 73.75880139 -25.06732971 54.92527711 -16.63134766 35.70361328 C-13.82788647 29.32075027 -10.94902025 22.97141127 -8.0798645 16.6178894 C-7.14964838 14.5546701 -6.2236359 12.48961121 -5.29858398 10.42407227 C-4.74339875 9.18893251 -4.18814554 7.95382331 -3.6328125 6.71875 C-3.14699707 5.63529297 -2.66118164 4.55183594 -2.16064453 3.43554688 C-1 1 -1 1 0 0 Z " fill="#096C9A" transform="translate(1596,297)"/>
<path d="M0 0 C0.78393127 -0.00006042 1.56786255 -0.00012085 2.37554932 -0.00018311 C59.49912297 0.06152247 59.49912297 0.06152247 81.5 5.1875 C80.90042957 12.53608118 79.33232587 19.33810054 77.375 26.4375 C76.90586182 28.14897217 76.90586182 28.14897217 76.42724609 29.89501953 C65.37169459 69.65621353 47.7663975 107.37951627 19.56640625 137.93359375 C17.73259442 139.9338006 15.98962633 141.98093238 14.25 144.0625 C-32.07063145 197.00036452 -108.18833572 218.22043127 -175.375 226.5 C-177.14955566 226.72091309 -177.14955566 226.72091309 -178.95996094 226.94628906 C-205.98868105 230.02806836 -232.9166036 230.47397628 -260.08133841 230.39028788 C-264.93386836 230.37755261 -269.78640245 230.37659248 -274.63894653 230.37423706 C-283.77529065 230.3680878 -292.91158534 230.35176846 -302.04790795 230.33153808 C-312.47161478 230.30897153 -322.89532431 230.29813416 -333.3190496 230.28814721 C-354.71272703 230.26739419 -376.10636037 230.23234976 -397.5 230.1875 C-395.29306227 226.85671295 -393.11613613 223.57919757 -390.58203125 220.48828125 C-390.05472412 219.8422998 -389.52741699 219.19631836 -388.98413086 218.53076172 C-388.43249268 217.86061035 -387.88085449 217.19045898 -387.3125 216.5 C-386.73443604 215.79375488 -386.15637207 215.08750977 -385.56079102 214.35986328 C-384.40321787 212.94592783 -383.24463104 211.53282156 -382.08496094 210.12060547 C-380.74139117 208.48191394 -379.40505166 206.83729843 -378.0703125 205.19140625 C-369.82347818 195.02635223 -361.30018425 185.09946511 -352.50390625 175.40625 C-350.68688018 173.39441607 -348.90055608 171.36089566 -347.125 169.3125 C-342.35234421 163.84405841 -337.43424342 158.50974772 -332.5 153.1875 C-331.91573242 152.55666504 -331.33146484 151.92583008 -330.72949219 151.27587891 C-322.9563985 142.90156271 -315.065711 134.6558419 -307 126.5625 C-305.90643188 125.46204346 -305.90643188 125.46204346 -304.79077148 124.33935547 C-300.80666998 120.36664622 -296.7255457 116.57545828 -292.46435547 112.90234375 C-288.49884546 109.44053138 -284.70545818 105.78960151 -280.88085938 102.17382812 C-279.9440332 101.29307617 -279.9440332 101.29307617 -278.98828125 100.39453125 C-278.16130737 99.61299683 -278.16130737 99.61299683 -277.31762695 98.81567383 C-276.71781006 98.27837646 -276.11799316 97.7410791 -275.5 97.1875 C-274.80326172 96.48077148 -274.10652344 95.77404297 -273.38867188 95.04589844 C-269.26756091 92.39462252 -265.60810641 92.43477915 -260.79296875 92.24609375 C-259.84351379 92.19345871 -258.89405884 92.14082367 -257.91583252 92.08659363 C-255.8888622 91.9754154 -253.8614484 91.87209145 -251.83370972 91.77593994 C-246.57945656 91.52386626 -241.32913526 91.20599204 -236.078125 90.89453125 C-235.05532944 90.83521423 -234.03253387 90.77589722 -232.97874451 90.71478271 C-195.76130123 88.51682545 -157.55001133 80.89619667 -130.5 53.1875 C-123.2947201 44.74531372 -116.05477721 34.58764186 -112.39746094 23.99389648 C-109.09456957 15.11566989 -109.09456957 15.11566989 -104.68774414 12.55053711 C-101.17529488 11.45271663 -97.75359582 10.73715747 -94.125 10.125 C-92.83803223 9.86372314 -91.55106445 9.60244629 -90.22509766 9.33325195 C-86.3278809 8.546531 -82.4175624 7.86557834 -78.5 7.1875 C-76.30699037 6.77765059 -74.11426048 6.36630016 -71.921875 5.953125 C-48.13104729 1.61822721 -24.1585509 -0.02919815 0 0 Z " fill="#FEA800" transform="translate(1042.5,911.8125)"/>
<path d="M0 0 C26.07 0 52.14 0 79 0 C80.98 11.88 82.96 23.76 85 36 C101.06262712 113.86882279 132.19225195 188.16013361 180 252 C180.81815186 253.09634766 180.81815186 253.09634766 181.65283203 254.21484375 C188.00048742 262.69577341 194.52586768 270.97199046 201.4375 279 C203.92966319 281.91765446 206.34516933 284.88521052 208.75 287.875 C211.73360992 291.54345989 214.812622 294.94718474 218.22143555 298.22045898 C219.98214768 299.98213787 221.59810494 301.809155 223.21484375 303.703125 C226.95196296 308.00209463 230.89921397 312.04757918 234.9375 316.0625 C235.60201172 316.73087891 236.26652344 317.39925781 236.95117188 318.08789062 C240.88630546 322.01539059 244.93116888 325.75389006 249.14038086 329.38549805 C251.75548564 331.65590476 254.27834689 334.01451612 256.8125 336.375 C262.35637867 341.48918861 268.09524745 346.30484635 274 351 C274.79229004 351.63373535 274.79229004 351.63373535 275.60058594 352.28027344 C290.30357332 364.03064689 305.50972452 374.80901469 321.203125 385.203125 C322.62915039 386.14768555 322.62915039 386.14768555 324.08398438 387.11132812 C326.09771387 388.415599 328.13191948 389.68860172 330.18164062 390.93554688 C331.18904297 391.54978516 332.19644531 392.16402344 333.234375 392.796875 C334.14928711 393.34182617 335.06419922 393.88677734 336.00683594 394.44824219 C336.66458008 394.96032227 337.32232422 395.47240234 338 396 C338 399 338 399 335.859375 401.390625 C334.8339448 402.35560482 333.79632561 403.30771774 332.75 404.25 C331.8842334 405.03564331 331.8842334 405.03564331 331.00097656 405.8371582 C316.05372977 419.11733179 299.20124978 430.18037151 282.57958984 441.22753906 C280.32719953 442.77517806 278.21556189 444.41335419 276.08203125 446.1171875 C273 448 273 448 270.59765625 447.69140625 C266.79208329 445.21349183 263.09117693 442.63455285 259.4375 439.9375 C258.23432129 439.05795654 258.23432129 439.05795654 257.00683594 438.16064453 C254.66661842 436.44658317 252.33236044 434.72473147 250 433 C249.4117041 432.56671387 248.8234082 432.13342773 248.21728516 431.68701172 C244.78628466 429.15716814 241.38555299 426.59028886 238 424 C237.46487793 423.59104492 236.92975586 423.18208984 236.37841797 422.76074219 C224.26122743 413.46775423 212.75529768 403.4951685 201.45922852 393.22387695 C199.94480033 391.85438163 198.42283037 390.49310784 196.88867188 389.14575195 C189.57864536 382.69511722 182.69329314 375.84565493 175.81274414 368.94311523 C173.80923014 366.93422136 171.80039848 364.93075611 169.79101562 362.92773438 C163.64736572 356.78722603 157.60566046 350.64246054 152 344 C150.5867645 342.4551874 149.17059591 340.91304675 147.75 339.375 C143.20716545 334.34021721 139.04279637 329.06249081 134.890625 323.70703125 C132.94801429 321.20323661 130.97966767 318.72373528 128.984375 316.26171875 C128.47559814 315.63289795 127.96682129 315.00407715 127.44262695 314.35620117 C126.49368704 313.1859189 125.54206465 312.01780186 124.58666992 310.8527832 C115.761741 299.93902077 107.96524378 288.17125328 100.1875 276.5 C99.53961014 275.52821808 99.53961014 275.52821808 98.87863159 274.5368042 C52.28293868 204.49818529 20.40301246 125.12220008 5.625 42.3125 C5.2851709 40.42156616 5.2851709 40.42156616 4.93847656 38.49243164 C2.76019643 25.69053187 1.49464142 12.95355897 0 0 Z " fill="#FED700" transform="translate(189,875)"/>
<path d="M0 0 C0.66 0 1.32 0 2 0 C13.81181788 27.05625426 13.81181788 27.05625426 18.25 38.875 C18.53689697 39.62112549 18.82379395 40.36725098 19.11938477 41.13598633 C21.86678604 48.63894004 21.06939559 53.7218347 18.24609375 61.03515625 C17.95425705 61.81338745 17.66242035 62.59161865 17.36174011 63.39343262 C16.39759926 65.95394663 15.41832133 68.50833328 14.4375 71.0625 C13.75218488 72.86505549 13.06713018 74.66771 12.38232422 76.47045898 C-12.27059311 141.13330238 -40.05484932 205.16799705 -75 265 C-75.53431641 265.92022949 -76.06863281 266.84045898 -76.61914062 267.78857422 C-82.23192098 277.44448727 -87.95207291 287.03086179 -93.875 296.5 C-94.58825439 297.66233154 -94.58825439 297.66233154 -95.31591797 298.84814453 C-97.98683438 303.12072784 -100.81070061 307.05208684 -104.05078125 310.9140625 C-115.38991218 324.86817659 -116.38004887 336.62859356 -116.00643921 353.90266418 C-115.85884595 363.62924127 -116.8594881 373.26789791 -117.8125 382.9375 C-117.90197906 383.86360077 -117.99145813 384.78970154 -118.08364868 385.74386597 C-119.52749072 400.58847357 -121.33020548 415.32057978 -124 430 C-124.21914062 431.22041992 -124.43828125 432.44083984 -124.6640625 433.69824219 C-133.74045184 483.73059167 -147.65651991 536.27511447 -170.91992188 581.84326172 C-172.19389265 584.38717171 -173.28884416 586.97107745 -174.3125 589.625 C-174.63863281 590.46289062 -174.96476562 591.30078125 -175.30078125 592.1640625 C-175.64689453 593.07285156 -175.64689453 593.07285156 -176 594 C-176.99 594 -177.98 594 -179 594 C-178.46596558 592.86630981 -178.46596558 592.86630981 -177.92114258 591.7097168 C-143.9732366 519.20463375 -124.06499941 441.13772119 -119 333 C-119.99 333.66 -120.98 334.32 -122 335 C-120.125 330.125 -120.125 330.125 -119 329 C-119.1105145 326.22522115 -119.27660257 323.46893972 -119.46484375 320.69921875 C-120.73679394 296.84990694 -118.9564478 281.39402932 -104.99121094 261.87011719 C-102.18573679 257.82632685 -99.95215535 253.58021796 -97.75 249.1875 C-96.96635597 247.66718832 -96.1812029 246.14765352 -95.39453125 244.62890625 C-95.00604004 243.87367676 -94.61754883 243.11844727 -94.21728516 242.34033203 C-92.94264694 239.88973397 -91.63665073 237.45789474 -90.32421875 235.02734375 C-69.2038457 195.67209284 -52.58623049 154.02835279 -36.8626709 112.28729248 C-36.05369388 110.14236439 -35.24085238 107.99894696 -34.42675781 105.85595703 C-21.28011144 71.18050775 -10.16662326 35.65550497 0 0 Z " fill="#FDC000" transform="translate(1543,482)"/>
<path d="M0 0 C1.21772082 3.58187387 0.80854112 6.28925917 0.15478516 9.98217773 C-0.05681244 11.19958145 -0.26841003 12.41698517 -0.48641968 13.67127991 C-0.72767618 15.00876287 -0.96918983 16.34619948 -1.2109375 17.68359375 C-1.45752836 19.08053533 -1.70349725 20.47758683 -1.94888306 21.8747406 C-2.60964601 25.6220419 -3.28157498 29.36725663 -3.95654297 33.1120224 C-4.37444568 35.4344195 -4.7894976 37.75730815 -5.20361328 40.0803833 C-8.64459869 59.37543393 -12.1765141 78.6515608 -16 97.875 C-16.17682312 98.77137177 -16.35364624 99.66774353 -16.53582764 100.59127808 C-18.57846518 110.89731297 -20.98707843 120.92974145 -24 131 C-24.48027799 132.7508829 -24.95474724 134.5033754 -25.421875 136.2578125 C-30.9829384 156.80290977 -38.4410512 177.61068628 -51 195 C-54.83954482 194.38200743 -57.96270244 193.23655808 -61.46484375 191.55859375 C-62.50560059 191.06117676 -63.54635742 190.56375977 -64.61865234 190.05126953 C-65.71387207 189.51872559 -66.8090918 188.98618164 -67.9375 188.4375 C-69.0610791 187.89464355 -70.1846582 187.35178711 -71.34228516 186.79248047 C-78.29521209 183.40289093 -85.10059111 179.87730394 -91.7421875 175.9140625 C-94.53301875 174.27436548 -97.34523541 172.71601743 -100.19140625 171.17578125 C-105.88392737 168.08461887 -111.4840895 164.85435355 -117.0625 161.5625 C-117.97837891 161.02818359 -118.89425781 160.49386719 -119.83789062 159.94335938 C-134.98805226 151.01194774 -134.98805226 151.01194774 -140 146 C-132.18406073 140.14380951 -124.29689068 134.47574852 -116.125 129.125 C-100.55234996 118.87219935 -85.02849294 107.40704479 -72 94 C-71.34 94.33 -70.68 94.66 -70 95 C-69.62875 94.13375 -69.62875 94.13375 -69.25 93.25 C-67.80606301 90.65091342 -66.26478013 88.92163162 -64 87 C-63.01 87 -62.02 87 -61 87 C-60.74347656 86.41347656 -60.48695313 85.82695313 -60.22265625 85.22265625 C-58.88826104 82.79687071 -57.45514672 81.32471299 -55.4375 79.4375 C-47.63936796 71.80767297 -41.19498211 63.08819687 -34.89331055 54.21459961 C-32.82506957 51.33395879 -30.851724 48.85558089 -28.296875 46.3671875 C-25.85444832 43.84999265 -25.22565917 42.23629108 -24 39 C-22.19931524 35.91886206 -20.24899323 32.93461569 -18.3125 29.9375 C-10.39134741 17.64911222 -10.39134741 17.64911222 -3.44140625 4.80078125 C-2 2 -2 2 0 0 Z " fill="#097BA4" transform="translate(601,1177)"/>
<path d="M0 0 C0.33 0 0.66 0 1 0 C1 8.25 1 16.5 1 25 C1.66 25.33 2.32 25.66 3 26 C2.58813386 60.13163136 0.11322859 94.38743149 -6 128 C-6.21914062 129.22041992 -6.43828125 130.44083984 -6.6640625 131.69824219 C-15.74045184 181.73059167 -29.65651991 234.27511447 -52.91992188 279.84326172 C-54.19389265 282.38717171 -55.28884416 284.97107745 -56.3125 287.625 C-56.63863281 288.46289062 -56.96476562 289.30078125 -57.30078125 290.1640625 C-57.53152344 290.76992187 -57.76226563 291.37578125 -58 292 C-58.99 292 -59.98 292 -61 292 C-60.46596558 290.86630981 -60.46596558 290.86630981 -59.92114258 289.7097168 C-25.9732366 217.20463375 -6.06499941 139.13772119 -1 31 C-1.99 31.66 -2.98 32.32 -4 33 C-2.125 28.125 -2.125 28.125 -1 27 C-0.84174742 25.00217874 -0.74880829 22.99911166 -0.68359375 20.99609375 C-0.62075195 19.17368164 -0.62075195 19.17368164 -0.55664062 17.31445312 C-0.51732422 16.03505859 -0.47800781 14.75566406 -0.4375 13.4375 C-0.37272461 11.51260742 -0.37272461 11.51260742 -0.30664062 9.54882812 C-0.200152 6.36600147 -0.09814038 3.18309326 0 0 Z " fill="#FAD903" transform="translate(1425,784)"/>
<path d="M0 0 C1.32 0.33 2.64 0.66 4 1 C3.67 1.66 3.34 2.32 3 3 C3.66 3 4.32 3 5 3 C3.58040126 7.78838746 1.53027501 11.99537386 -0.9375 16.3125 C-1.32429932 16.99675049 -1.71109863 17.68100098 -2.10961914 18.38598633 C-5.62598491 24.52067075 -9.43815329 30.45105554 -13.36889648 36.32739258 C-15.68926069 39.82372225 -17.4726171 43.07455217 -19 47 C-20.31647119 47.69937532 -21.65022151 48.36729133 -23 49 C-23.67987023 50.32664942 -24.34345318 51.66165457 -25 53 C-30.95925453 61.63156598 -37.76289762 69.56623783 -44.65771484 77.45361328 C-45.8345713 78.80941699 -46.9912705 80.18266335 -48.14453125 81.55859375 C-51.21748749 85.20731086 -53.81765445 87.62623631 -58 90 C-59.34736973 91.65533995 -60.68334336 93.32012773 -62 95 C-62.66 95 -63.32 95 -64 95 C-62.42584818 91.12308893 -59.93840506 88.80334323 -56.9375 85.9375 C-51.50017116 80.62453417 -46.66053284 75.01408693 -42 69 C-41.55043945 68.4215332 -41.10087891 67.84306641 -40.63769531 67.24707031 C-16.31553781 35.82944341 -16.31553781 35.82944341 0 0 Z " fill="#000A68" transform="translate(593,1177)"/>
<path d="M0 0 C1 3 1 3 0.23754883 4.97583008 C-0.18502197 5.73275146 -0.60759277 6.48967285 -1.04296875 7.26953125 C-1.77326294 8.58062866 -1.77326294 8.58062866 -2.51831055 9.91821289 C-3.06914307 10.87332764 -3.61997559 11.82844238 -4.1875 12.8125 C-5.04371948 14.3118811 -5.04371948 14.3118811 -5.91723633 15.84155273 C-11.02531504 24.62530721 -16.54266573 33.11700197 -22.1875 41.5625 C-22.80629532 42.48840439 -22.80629532 42.48840439 -23.43759155 43.43301392 C-31.60472515 55.6179141 -39.99392351 67.65245173 -49.0625 79.1875 C-49.65973877 79.9501416 -50.25697754 80.7127832 -50.87231445 81.49853516 C-52.57668736 83.66957886 -54.28668641 85.83600816 -56 88 C-56.43731445 88.55349121 -56.87462891 89.10698242 -57.32519531 89.67724609 C-62.43611502 96.11970598 -67.86088128 102.21293857 -73.453125 108.234375 C-75.47859985 110.43381701 -77.44094481 112.65876171 -79.375 114.9375 C-84.56660352 120.9454736 -90.35097612 126.42742908 -96 132 C-96 129 -96 129 -93.47265625 126.25 C-92.34151076 125.16084873 -91.20438871 124.07788255 -90.0625 123 C-85.04784764 118.13685387 -80.50175209 113.14037106 -76.16015625 107.65625 C-73.9589005 104.94946173 -71.63682379 102.41890209 -69.25 99.875 C-63.19504355 93.2935256 -57.89692488 86.16907183 -52.53125 79.0234375 C-51.17393247 77.22983933 -49.79855214 75.45398334 -48.40625 73.6875 C-41.13808436 64.43710737 -34.53039461 54.78026236 -28 45 C-27.39462402 44.0939502 -26.78924805 43.18790039 -26.16552734 42.25439453 C-16.96881237 28.43893822 -8.29845622 14.37225602 0 0 Z " fill="#FBCB03" transform="translate(1348,1107)"/>
<path d="M0 0 C0.66 0.33 1.32 0.66 2 1 C-10.21 13.21 -22.42 25.42 -35 38 C-35 35 -35 35 -32.83984375 32.58203125 C-31.87899505 31.65198761 -30.91107942 30.72920852 -29.9375 29.8125 C-28.90815307 28.81717165 -27.88080537 27.81977158 -26.85546875 26.8203125 C-26.35708496 26.3346582 -25.85870117 25.84900391 -25.34521484 25.34863281 C-23.70899261 23.70825321 -22.2236814 21.97448374 -20.75 20.1875 C-15.55227991 14.07028151 -9.40314082 8.79804297 -3.49291992 3.38525391 C-2.3043604 2.28241061 -1.14650274 1.14650274 0 0 Z " fill="#0F306D" transform="translate(814,801)"/>
<path d="M0 0 C1.32 0.33 2.64 0.66 4 1 C2.58036591 6.67853635 -0.39363961 10.53174216 -4 15 C-5 13 -5 13 -4.00390625 9.9609375 C-3.52824219 8.77757812 -3.05257812 7.59421875 -2.5625 6.375 C-2.08941406 5.18648437 -1.61632812 3.99796875 -1.12890625 2.7734375 C-0.75636719 1.85820313 -0.38382813 0.94296875 0 0 Z " fill="#0E0855" transform="translate(593,1177)"/>
<path d="M0 0 C0.66 0.33 1.32 0.66 2 1 C-3.81409488 6.90871848 -9.58930713 12.72898586 -16 18 C-16.66 17.67 -17.32 17.34 -18 17 C-12.52817321 11.41417682 -6.93615794 6.08813538 -1 1 C-0.67 0.67 -0.34 0.34 0 0 Z " fill="#FAB604" transform="translate(1227,1261)"/>
<path d="M0 0 C0.66 0.66 1.32 1.32 2 2 C-0.64 6.95 -3.28 11.9 -6 17 C-6.66 17 -7.32 17 -8 17 C-6.3341708 10.83643195 -3.12194714 5.51740344 0 0 Z " fill="#FAD203" transform="translate(1360,1084)"/>
<path d="M0 0 C0.66 0.33 1.32 0.66 2 1 C-2.29 4.63 -6.58 8.26 -11 12 C-11.66 11.67 -12.32 11.34 -13 11 C-11.21079529 9.3514184 -9.4187995 7.70606879 -7.625 6.0625 C-6.86316406 5.35963867 -6.86316406 5.35963867 -6.0859375 4.64257812 C-2.2265625 1.11328125 -2.2265625 1.11328125 0 0 Z " fill="#FBB303" transform="translate(1204,1282)"/>
<path d="M0 0 C0.66 0 1.32 0 2 0 C2.66 4.29 3.32 8.58 4 13 C3.01 12.67 2.02 12.34 1 12 C0.67 8.04 0.34 4.08 0 0 Z " fill="#11F0E9" transform="translate(4,915)"/>
</svg>
